<svg xmlns="http://www.w3.org/2000/svg" viewBox="0 0 128 128">
  <!-- C# Text Shape -->
  <path 
    d="M63.5 103.5c-21.8 0-39.5-17.7-39.5-39.5S41.7 24.5 63.5 24.5c14.7 0 27.5 8.1 34.3 20l-13 7.5C80.6 44.5 72.6 39.5 63.5 39.5c-13.5 0-24.5 11-24.5 24.5s11 24.5 24.5 24.5c9.1 0 17.1-5 21.3-12.4l12.9 7.6c-6.8 11.8-19.6 19.8-34.2 19.8zM115 62h-3.2l-.9 4h4.1v5h-5l-1.2 6h-4.9l1.2-6h-3.8l-1.2 6h-4.8l1.2-6H94v-5h3.5l.9-4H94v-5h5.3l1.2-6h4.9l-1.2 6h3.8l1.2-6h4.8l-1.2 6h2.2v5zm-12.7 4h3.8l.9-4h-3.8z" 
    fill="#D3D3D3"
  />
</svg>
