<svg xmlns="http://www.w3.org/2000/svg" viewBox="0 0 200 200" width="100%" height="100%">
  <g transform="translate(-0,-150) scale(1.0)">
    <path fill="#CEA334" d="M117.97,317.95c0-4.77-1.12-9.4-3.37-13.89c-4.07-8.28-17.39-14.45-30.16-20.2
      c-6.17-2.81-12.48-5.75-17.39-8.7c-23.71-14.45-31.56-31.98-33.95-44.19c-0.7-3.37-0.98-6.73-0.98-10.1
      c0-10.52,3.09-20.48,8.7-27.91c22.44-30.02,60.32-26.51,71.54-24.83c-10.94,0.42-38.01,5.33-50.92,31
      c-2.52,5.05-3.79,10.24-3.79,15.43c0,21.04,21.46,39.14,38.58,53.72c5.89,5.05,11.5,9.82,15.85,14.17c7.57,8,11.5,16.55,11.5,25.25
      c0,10.24-5.33,18.52-8.56,22.44C117.13,326.23,117.97,322.16,117.97,317.95z"/>
    <path fill="#CEA334" d="M12.76,305.61c5.19,4.35,16.13,11.64,36.47,17.39c10.38,2.95,20.06,3.09,27.91,3.37
      c7.01,0.14,12.48,0.28,15.99,2.24c2.81,1.54,4.63,4.07,4.63,6.73l-0.14,1.54c-0.98,3.93-6.31,8.14-18.24,8.28
      C43.63,345.45,21.32,318.51,12.76,305.61z"/>
    <path fill="#CEA334" d="M77.01,244.03c0,0,14.73-24.83,30.02-28.76c18.52-4.91,28.76,3.09,28.76,3.09l5.05-10.1
      l7.86,38.86c0,0,1.4,3.51-5.05,8c-6.45,4.35-7.01,3.51-7.01,3.51s-4.21-15.85-12.48-17.67s-8.28,9.26-7.86,12.76
      c0.42,3.51,7.57,17.96,19.5,11.92c12.91-6.59,18.94-15.01,18.94-15.01s1.82-4.35,3.65-3.09c1.82,1.26,8.84,8.84,8.84,8.84
      l-2.81,46.29c0,0,0,5.75-7.86,8s-7.86,1.82-7.86,1.82l4.21-14.17h5.05l-1.4-32.68c0,0-4.35,21.32-12.48,35.35
      c-9.68,16.69-25.53,30.44-25.53,30.44s9.96-11.92,8.42-26.37c-0.98-9.54-5.19-20.62-25.95-37.73
      C89.21,257.35,77.01,244.03,77.01,244.03z"/>
    <path fill="#CEA334" d="M101.14,334.22c0-1.4-0.28-2.81-0.98-4.07c-2.38-4.49-8.7-6.87-18.8-7.29
      c-18.52-0.56-62.84-5.19-75.33-34.65C2.1,278.82,0,268.44,0,257.63c0-12.34,2.67-22.44,4.35-27.91c-0.28,1.54-0.28,4.21-0.28,4.21
      c0,11.64,2.81,33.39,21.46,48.82c11.78,9.82,29.6,17.53,52.6,23c15.71,3.65,24.55,9.26,26.51,16.69l0.42,3.09
      c0,3.65-1.68,7.43-4.63,11.36C100.86,336.05,101.14,334.22,101.14,334.22z"/>
    <path fill="#CEA334" d="M109.27,325.95c0-2.1-0.42-4.35-1.4-6.73c-3.37-8-12.76-13.61-28.05-16.97
      c-39.98-8.7-62.56-24.69-69.16-48.82c-1.68-6.03-2.38-11.5-2.38-16.69c0-33.1,29.18-50.92,39-55.97
      c-5.33,5.05-16.55,17.25-18.66,32.68c-0.42,2.81-0.56,5.61-0.56,8.28c0,19.64,10.1,37.03,30.86,52.6
      c6.59,4.91,15.29,8.98,23.85,12.76c12.2,5.47,23.85,10.8,28.34,18.38c2.24,3.79,3.09,7.43,3.09,10.94c0,7.15-3.65,12.91-6.17,15.99
      C108.71,330.72,109.27,328.47,109.27,325.95z"/>
    <path fill="#CEA334" d="M108.15,190.02c-6.45,0-12.48-6.03-12.48-12.48c0,6.45-6.03,12.48-12.48,12.48
      c6.45,0,12.48,6.03,12.48,12.48C95.67,196.05,101.7,190.02,108.15,190.02z"/>
  </g>
</svg>
